<?xml version="1.0" standalone="no"?>
<!DOCTYPE svg PUBLIC "-//W3C//DTD SVG 20010904//EN"
 "http://www.w3.org/TR/2001/REC-SVG-20010904/DTD/svg10.dtd">
<svg version="1.0" xmlns="http://www.w3.org/2000/svg"
 width="928.000000pt" height="928.000000pt" viewBox="0 0 928.000000 928.000000"
 preserveAspectRatio="xMidYMid meet">
<metadata>
Created by potrace 1.11, written by Peter Selinger 2001-2013
</metadata>
<g transform="translate(0.000000,928.000000) scale(0.100000,-0.100000)"
fill="#000000" stroke="none">
<path d="M6550 9194 c-171 -15 -363 -38 -464 -55 -1162 -196 -2372 -816 -3483
-1784 -184 -161 -639 -613 -804 -801 -1580 -1792 -2196 -3885 -1539 -5229 303
-619 863 -1033 1600 -1184 209 -43 362 -56 650 -55 351 0 561 23 920 100 1148
247 2391 938 3433 1908 991 924 1734 2010 2128 3114 415 1161 379 2236 -98
2972 -359 553 -931 891 -1673 991 -139 19 -555 33 -670 23z m1614 -1209 c-2
-181 -426 -809 -1019 -1510 -1016 -1201 -2568 -2664 -4230 -3986 -860 -685
-1536 -1164 -1739 -1233 -78 -27 -85 -7 -30 93 92 167 373 503 889 1061 369
398 618 654 1354 1391 1148 1147 2112 2062 3116 2954 885 787 1541 1298 1645
1282 11 -2 15 -15 14 -52z"/>
</g>
</svg>
