<svg id="coffeepot" xmlns="http://www.w3.org/2000/svg" width="149.137" height="109.891" viewBox="0 0 149.137 109.891">
  <g id="g844" transform="translate(0 0)">
    <path id="path849" d="M76,102.2c-7.142.085-12.809,1.557-12.8,2.067.031,1.224,13.593,9.968,15.531,9.968.867,0,1.3,2.374,1.3,7.162v7.162l-12.911,8c-8.812,5.458-14.3,9.8-17.289,13.664-10.717,13.874-10.19,29.522,1.474,43.75,5.14,6.27,17.922,15.472,21.493,15.472a2.963,2.963,0,0,1,2.493,1.322c.408.828,11.227,1.322,28.969,1.322s28.56-.493,28.968-1.322a2.964,2.964,0,0,1,2.493-1.323c3.57,0,16.352-9.2,21.493-15.471,11.664-14.228,12.191-29.876,1.474-43.75-2.984-3.863-8.574-8.285-17.552-13.884l-13.173-8.216,10.007-.363c10.412-.378,14.943-2.066,18.4-6.858,2.326-3.226,7.529-6.664,10.086-6.664,4.2-1.25,13.166,1.7,14.706,11.82s-5.686,26.281,1.317,27.524c9.318,1.654,10.449-24.968,7.11-33.477-5.332-13.588-24.59-21.464-40.516-7.327-2.854,2.533-12.786,6.776-20.581,4.423a5.859,5.859,0,0,1,2.107-3.979,6.119,6.119,0,0,0,2.106-4.228c0-2.435-1.366-6.827-19.224-3.278-10.92,2.17-22.858-2.78-34.338-3.458-1.045-.062-2.118-.067-3.139-.055Zm6.683,27.9h43.152l7.909,4.959,7.91,4.959-6.32,1.443c-19.248,2.935-42.836,3.37-62.061,0l-6.41-1.443,7.91-4.959Z" transform="translate(-42.161 -102.198)" fill="#41210a"/>
    <path id="path847" d="M80.456,112.344a1.357,1.357,0,1,1-1.053,1.322A1.215,1.215,0,0,1,80.456,112.344Z" transform="translate(-35.21 -100.304)" fill="#41210a"/>
    <path id="path845" d="M87.523,112.344c1.738,0,3.16.595,3.16,1.322s-1.422,1.323-3.16,1.323-3.16-.6-3.16-1.323S85.785,112.344,87.523,112.344Z" transform="translate(-34.284 -100.304)" fill="#41210a"/>
    <path id="path843" d="M104.47,112.344c7.725,0,12.641.514,12.641,1.322s-4.916,1.323-12.641,1.323-12.641-.515-12.641-1.323S96.745,112.344,104.47,112.344Z" transform="translate(-32.89 -100.304)" fill="#41210a"/>
    <path id="path837" d="M57.592,146.7a1.92,1.92,0,0,0-1.294.4c-5.018,3.869-7.512,11.212-7.049,19.048.481,8.143,4.06,15.445,9.885,18.615a1.987,1.987,0,0,0,1.852.058,1.618,1.618,0,0,0,.933-1.443,1.675,1.675,0,0,0-.943-1.464c-4.13-2.247-7.642-8.57-8.075-15.895-.417-7.047,2.1-13.525,5.784-16.367a1.556,1.556,0,0,0,.556-1.8,1.846,1.846,0,0,0-1.65-1.151Z" transform="translate(-40.848 -93.89)" fill="#41210a"/>
  </g>
</svg>
