<svg xmlns="http://www.w3.org/2000/svg" width="157.839" height="173.67" viewBox="0 0 157.839 173.67">
  <g id="coffee-cup" transform="translate(355.457 -22.675)">
    <g id="g3814" transform="translate(-355.457 22.675)">
      <g id="g3810" transform="translate(38.61 134.403)">
        <path id="path3800" d="M89.664,69.65c0,6.943-17.851,12.571-39.874,12.571S9.916,76.593,9.916,69.65,27.767,57.079,49.79,57.079,89.664,62.707,89.664,69.65Z" transform="translate(-9.916 -57.079)" fill="#41210a" opacity="0.892"/>
      </g>
      <path id="path2989" d="M92.286,57.18c-2.055-.46.681,6.8-1.35,6.6,17.495,6.311,22.531,18.1,19.4,29.428-3.352,12.147-15.364,18.212-34.05,16.423,1.9.686-1.7,6.452.355,6.912,20.958,4.692,42.344-6.556,45.77-23.335,3.132-15.339-9.171-31.337-30.129-36.029Z" transform="translate(33.527 10.989)" fill="#41210a" stroke="#999" stroke-width="0.16"/>
      <path id="path2985" d="M114.942,53.639A57.471,57.471,0,1,1,36.839,0" transform="translate(0 82.538) rotate(-34.896)" fill="#41210a"/>
      <path id="path2994" d="M99.927,54.028l-8.48.074c13.632,23.332,8.812,55.4-10.787,71.658a39.126,39.126,0,0,1-20.493,9.017c9.912,1.165,20.2-1.707,29.013-9.017,19.619-16.278,24.432-48.394,10.747-71.732Z" transform="translate(21.419 8.593)" fill="#8d613c" opacity="0.329"/>
      <path id="path3779" d="M17.949,9.781c-3.167,14.831.965,43.157.547,59.354C14.762,56.2,13.862,31.93,17.949,9.781Z" transform="translate(59.365 -9.781)" fill="#6e3b3b" fill-rule="evenodd"/>
    </g>
  </g>
</svg>
