<svg xmlns="http://www.w3.org/2000/svg" width="214.735" height="214.735" viewBox="0 0 214.735 214.735">
  <path id="Icon_awesome-medal" data-name="Icon awesome-medal" d="M80.04,46.772,55.311,5.559A11.446,11.446,0,0,0,45.495,0H5.734a5.725,5.725,0,0,0-4.69,9.007l39.8,56.863A74.033,74.033,0,0,1,80.04,46.772ZM177.419,0H137.658a11.446,11.446,0,0,0-9.816,5.559L103.113,46.772a74.055,74.055,0,0,1,39.192,19.1l39.8-56.86A5.725,5.725,0,0,0,177.419,0ZM91.576,57.235a62.959,62.959,0,1,0,62.959,62.959A62.96,62.96,0,0,0,91.576,57.235Zm33.1,56.255L111.1,126.712l3.209,18.68a4.108,4.108,0,0,1-5.956,4.325L91.576,140.9,74.8,149.717a4.105,4.105,0,0,1-5.956-4.325l3.209-18.68L58.484,113.491a4.109,4.109,0,0,1,2.272-7.008l18.755-2.733,8.381-17a4.115,4.115,0,0,1,7.373,0l8.381,17,18.755,2.733a4.109,4.109,0,0,1,2.272,7.008Z" transform="translate(34.947 0) rotate(11)" fill="#f3cf7a"/>
</svg>
