<svg xmlns="http://www.w3.org/2000/svg" width="37.391" height="74.816" viewBox="0 0 37.391 74.816">
  <path id="Icon_ionic-ios-phone-portrait" data-name="Icon ionic-ios-phone-portrait" d="M42.139,2.25H15.653a5.5,5.5,0,0,0-5.528,5.494V71.371a5.657,5.657,0,0,0,5.528,5.695H42.122a5.546,5.546,0,0,0,5.394-5.695V7.744A5.359,5.359,0,0,0,42.139,2.25ZM26.324,6.091h5.01a.668.668,0,0,1,0,1.336h-5.01a.668.668,0,0,1,0-1.336Zm2.588,68.47a2.906,2.906,0,1,1,2.906-2.906A2.908,2.908,0,0,1,28.912,74.561Zm15.614-8.183h-31.4a.335.335,0,0,1-.334-.334V11.1a.335.335,0,0,1,.334-.334h31.4a.335.335,0,0,1,.334.334V66.044A.335.335,0,0,1,44.527,66.378Z" transform="translate(-10.125 -2.25)" fill="#6e3b3b"/>
</svg>
