<svg xmlns="http://www.w3.org/2000/svg" width="53.856" height="61.046" viewBox="0 0 53.856 61.046">
  <path id="Icon_material-money-off" data-name="Icon material-money-off" d="M34.714,17.727c6.037,0,8.275,2.883,8.479,7.122h7.5c-.237-5.833-3.8-11.192-10.886-12.921V4.5H29.626v7.325a20.1,20.1,0,0,0-5.019,1.831l4.985,4.985A13.3,13.3,0,0,1,34.714,17.727ZM10.4,8.095,6.09,12.4,17.756,24.068c0,7.054,5.291,10.886,13.26,13.26l11.9,11.9c-1.153,1.628-3.561,3.086-8.207,3.086-6.986,0-9.733-3.12-10.106-7.122H17.146c.407,7.427,5.969,11.6,12.48,12.989v7.359H39.8V58.254a16.967,16.967,0,0,0,8.309-3.8l7.529,7.529,4.307-4.307Z" transform="translate(-6.09 -4.5)" fill="#6e3b3b"/>
</svg>
