<svg xmlns="http://www.w3.org/2000/svg" width="62.544" height="62.544" viewBox="0 0 62.544 62.544">
  <path id="Icon_awesome-phone" data-name="Icon awesome-phone" d="M60.271,3.006,47.567.074a2.951,2.951,0,0,0-3.359,1.7L38.344,15.453a2.924,2.924,0,0,0,.843,3.42l7.4,6.059A45.271,45.271,0,0,1,24.944,46.577l-6.059-7.4a2.929,2.929,0,0,0-3.42-.843L1.784,44.2a2.967,2.967,0,0,0-1.71,3.371l2.932,12.7a2.931,2.931,0,0,0,2.858,2.272A56.673,56.673,0,0,0,62.543,5.864,2.928,2.928,0,0,0,60.271,3.006Z" transform="translate(0.001 0.001)" fill="#6e3b3b"/>
</svg>
