<svg xmlns="http://www.w3.org/2000/svg" width="87.208" height="61.045" viewBox="0 0 87.208 61.045">
  <path id="Icon_awesome-truck-moving" data-name="Icon awesome-truck-moving" d="M84.66,30.225l-7.971-7.971a8.724,8.724,0,0,0-6.173-2.548h-5.11V6.61a4.356,4.356,0,0,0-4.36-4.36H4.36A4.356,4.356,0,0,0,0,6.61V52.394a10.874,10.874,0,0,0,19.622,6.486,10.874,10.874,0,0,0,19.622-6.486,11.484,11.484,0,0,0-.218-2.18H61.263a10.473,10.473,0,0,0-.218,2.18,10.9,10.9,0,1,0,21.8,0,11.484,11.484,0,0,0-.218-2.18h2.4a2.187,2.187,0,0,0,2.18-2.18V36.384A8.692,8.692,0,0,0,84.66,30.225ZM10.9,56.755a4.36,4.36,0,1,1,4.36-4.36A4.373,4.373,0,0,1,10.9,56.755Zm17.442,0a4.36,4.36,0,1,1,4.36-4.36A4.373,4.373,0,0,1,28.343,56.755ZM65.406,26.232h5.11a2.164,2.164,0,0,1,1.54.64l5.9,5.9H65.406Zm6.541,30.523a4.36,4.36,0,1,1,4.36-4.36A4.373,4.373,0,0,1,71.946,56.755Z" transform="translate(0 -2.25)" fill="#6e3b3b"/>
</svg>
